<svg xmlns="http://www.w3.org/2000/svg" xmlns:xlink="http://www.w3.org/1999/xlink" width="840px" height="470px" viewBox="0 0 840 470" preserveAspectRatio="xMidYMid meet" ><rect id="svgEditorBackground" x="0" y="0" width="840" height="470" style="fill: none; stroke: none;"/><defs id="svgEditorDefs"><path id="svgEditorClosePathDefs" style="stroke:black;stroke-width:1px;fill:khaki;"/><polygon id="svgEditorShapeDefs" style="fill:khaki;stroke:black;vector-effect:non-scaling-stroke;stroke-width:1px;"/></defs><path d="M4,0c0,-2,-2,-3,-4,-3c-2,0,-4,1,-4.288808664259928,2.9711191335740077c0.49097472924187713,1.0288808664259923,3.6967509025270777,0.4981949458483754,1.0000000000000009,2.191335740072202l0.4512635379061365,0.6823104693140785c1.8375451263537927,0.15523465703971162,1.8375451263537927,0.15523465703971162,2.837545126353791,0.15523465703971162c1.9999999999999998,0,4,-1,4,-3Z" style="fill: none; vector-effect: non-scaling-stroke; stroke-width:7.5px;stroke:rgb(255,250,250);stroke-opacity:1;" id="e5_shape" transform="matrix(34.625 0 0 34.625 374.5 227.875)"/><path d="M274,327q-115,70,187,48" style="fill:none;stroke:snow;stroke-width:7.5px;" id="e10_arc2"/><rect x="460" y="359" style="fill:none;stroke:snow;stroke-width:7.5px;" id="e12_rectangle" width="41" height="33"/><line id="e13_line" x1="501" y1="368" x2="522" y2="368" style="stroke:snow;fill:none;stroke-width:7.5px;"/><line id="e14_line" x1="502" y1="383" x2="522" y2="383" style="stroke:snow;fill:none;stroke-width:7.5px;"/></svg>